<?xml version="1.0"?>
<svg xmlns="http://www.w3.org/2000/svg" xmlns:xlink="http://www.w3.org/1999/xlink" version="1.1" id="Capa_1" x="0px" y="0px" viewBox="0 0 512 512" style="enable-background:new 0 0 512 512;" xml:space="preserve" width="512px" height="512px"><g><g>
	<path d="M270.829,267.947c-10.069-7.339-25.28-18.411-25.472-22.656c0-6.037,13.781-19.712,24.853-30.677   c25.515-25.323,60.48-59.989,60.48-107.947c0.573-35.74-19.044-68.751-50.709-85.333h50.709c5.891,0,10.667-4.776,10.667-10.667   S336.581,0,330.69,0H192.023c-9.238,0.031-18.456,0.887-27.541,2.56C206.957-5.909,251.565,32,264.557,88.597l0,0   c13.291,57.323-10.88,111.936-53.867,121.963c-4.485,1.033-9.072,1.556-13.675,1.557c-38.635,0-76.437-36.267-88.299-87.467   C95.639,67.904,119.383,13.888,161.453,3.179C99.519,12.344,53.579,65.392,53.357,128c0,73.408,68.672,99.819,118.101,105.451   c-10.97,20.706-10.584,45.586,1.024,65.941C107.522,303.979,10.69,332.075,10.69,416c-0.764,22.599,7.871,44.503,23.851,60.501   C67.757,509.248,126.061,512,156.503,512c3.648,0,6.869,0,9.6,0h4.587c1.813,0,181.333-3.179,181.333-117.333   C352.023,327.104,303.17,291.52,270.829,267.947z M192.023,490.667c-54.123,0-117.333-22.336-117.333-85.333   s73.088-106.667,138.667-106.667c1.914,0.001,3.794,0.516,5.44,1.493c9.28,5.504,90.56,55.211,90.56,105.173   C309.357,456.32,248.685,490.667,192.023,490.667z" data-original="#F44336" class="active-path" data-old_color="#F44336" fill="#FFFFFF"/>
	<path d="M426.69,298.667c-5.891,0-10.667-4.776-10.667-10.667V160c0-5.891,4.776-10.667,10.667-10.667   c5.891,0,10.667,4.776,10.667,10.667v128C437.357,293.891,432.581,298.667,426.69,298.667z" data-original="#F44336" class="active-path" data-old_color="#F44336" fill="#FFFFFF"/>
	<path d="M490.69,234.667h-128c-5.891,0-10.667-4.776-10.667-10.667c0-5.891,4.776-10.667,10.667-10.667h128   c5.891,0,10.667,4.776,10.667,10.667C501.357,229.891,496.581,234.667,490.69,234.667z" data-original="#F44336" class="active-path" data-old_color="#F44336" fill="#FFFFFF"/>
</g></g> </svg>
